<?xml version="1.0" standalone="no"?>
<!DOCTYPE svg PUBLIC "-//W3C//DTD SVG 20010904//EN"
 "http://www.w3.org/TR/2001/REC-SVG-20010904/DTD/svg10.dtd">
<svg version="1.0" xmlns="http://www.w3.org/2000/svg"
 width="300.000000pt" height="200.000000pt" viewBox="0 0 300.000000 200.000000"
 preserveAspectRatio="xMidYMid meet">
<metadata>
Created by potrace 1.10, written by Peter Selinger 2001-2011
</metadata>
<g transform="translate(0.000000,200.000000) scale(0.100000,-0.100000)"
fill="#000000" stroke="none">
<path d="M2250 1464 c-44 -16 -145 -77 -155 -95 -3 -4 -12 -6 -20 -3 -8 4 -28
-5 -44 -17 -15 -13 -41 -31 -57 -40 -18 -9 -39 -36 -54 -68 l-25 -52 -95 5
c-112 5 -334 31 -405 48 -94 21 -212 77 -239 113 -14 18 -47 43 -73 56 -44 22
-61 24 -188 23 -217 -1 -336 -43 -439 -155 -74 -79 -110 -156 -110 -236 -1
-87 33 -135 134 -185 41 -21 81 -48 89 -61 13 -22 12 -27 -8 -56 -28 -39 -54
-37 -62 4 -5 25 -7 27 -14 12 -4 -10 -3 -29 3 -42 9 -18 8 -25 -4 -29 -9 -4
-14 1 -14 14 0 30 -18 24 -22 -7 -4 -29 -7 -26 -25 27 -4 11 -7 9 -14 -7 -4
-13 -15 -23 -23 -23 -12 0 -15 12 -12 59 2 32 9 68 15 79 6 11 11 31 11 44 -2
52 -40 -79 -40 -135 0 -61 16 -81 44 -58 10 9 15 8 20 -4 3 -9 1 -15 -7 -14
-6 1 -33 1 -59 0 -74 -2 -56 -16 20 -16 44 0 77 -5 97 -16 17 -10 54 -22 83
-28 29 -6 74 -22 100 -35 26 -13 71 -29 100 -35 73 -15 246 -14 312 3 30 7 88
14 129 14 41 1 86 6 100 11 27 10 170 27 351 40 93 7 129 16 312 79 114 39
227 82 250 96 24 14 87 37 141 52 57 16 124 43 161 65 34 20 88 45 119 54 31
9 57 19 57 22 0 7 -57 -2 -83 -13 -14 -5 -10 5 15 40 32 46 33 51 33 144 0 54
-6 119 -14 145 -19 65 -86 138 -153 167 -69 30 -176 36 -238 14z m201 -15 c77
-20 150 -93 175 -176 20 -66 18 -196 -3 -241 -23 -49 -90 -115 -145 -143 -55
-29 -255 -91 -288 -90 -67 3 -113 -1 -133 -10 -17 -7 -10 -8 28 -4 28 3 64 1
80 -3 26 -8 2 -18 -201 -85 -191 -63 -243 -77 -295 -77 -34 0 -99 -5 -144 -12
-98 -14 -130 -7 -150 32 -32 61 -7 125 85 223 50 54 81 76 164 118 55 28 105
55 111 60 41 40 -155 -54 -231 -111 -28 -21 -68 -61 -88 -89 l-38 -51 -34 42
c-58 69 -67 94 -75 213 -7 110 -10 123 -77 258 -2 5 7 2 20 -7 52 -34 185 -74
283 -86 55 -6 142 -18 194 -26 52 -8 117 -12 145 -9 62 7 83 -3 67 -33 -15
-29 -14 -88 4 -146 8 -27 15 -63 15 -80 0 -18 7 -41 15 -53 14 -20 13 -22 -32
-37 -26 -9 -64 -16 -84 -16 -21 0 -58 -7 -83 -15 -34 -12 -50 -13 -69 -4 -30
14 -173 -3 -191 -22 -8 -9 -5 -10 14 -5 14 3 58 9 99 13 70 6 75 5 92 -18 15
-19 19 -20 19 -7 0 18 37 33 106 44 30 4 45 2 57 -10 20 -21 26 -20 21 2 -4
14 8 21 60 36 39 11 70 15 78 10 7 -5 27 -9 43 -9 17 -1 41 -5 55 -9 20 -6 22
-6 13 4 -13 14 -81 29 -135 30 -45 0 -54 13 -69 107 -28 167 -23 200 44 270
17 18 28 35 25 38 -3 3 -22 -13 -42 -36 -21 -22 -40 -38 -43 -36 -8 9 56 96
80 108 12 6 35 23 51 38 l28 26 -7 -25 c-7 -21 -2 -19 41 19 111 98 212 124
345 90z m-1394 -50 c45 -14 109 -89 151 -177 32 -68 36 -85 39 -169 3 -107 22
-162 79 -225 33 -36 35 -43 28 -77 -15 -64 -10 -109 14 -134 l23 -24 -48 -6
c-26 -4 -62 -9 -79 -13 -31 -6 -31 -6 -58 73 -33 93 -102 234 -144 296 -38 54
-114 124 -170 155 -65 36 -49 12 25 -38 36 -24 82 -65 102 -91 75 -93 204
-380 182 -402 -12 -12 -51 17 -51 37 0 6 -23 40 -50 76 -28 36 -68 90 -89 120
-63 88 -263 271 -280 255 -3 -4 7 -16 24 -28 67 -49 168 -146 209 -202 25 -32
43 -61 41 -63 -7 -7 -430 80 -481 99 -126 47 -178 122 -155 224 30 132 153
256 304 304 84 28 307 33 384 10z m-305 -614 c95 -19 197 -37 225 -41 48 -6
55 -10 91 -58 55 -72 72 -99 72 -111 0 -20 -143 -38 -272 -33 -116 4 -128 6
-204 41 -45 20 -93 37 -108 37 -31 0 -96 25 -96 37 0 5 20 15 45 22 35 10 50
22 68 52 l24 39 57 -50 c32 -28 80 -62 108 -76 28 -14 57 -38 66 -55 18 -31
32 -38 32 -15 0 21 -43 62 -91 87 -24 12 -64 38 -87 58 -77 63 -117 100 -110
101 4 0 85 -16 180 -35z"/>
<path d="M2230 1391 c-18 -6 -5 -9 48 -12 94 -6 118 -27 138 -125 14 -68 56
-154 74 -154 13 0 13 17 0 25 -18 11 -46 78 -60 140 -16 76 -32 100 -81 119
-42 17 -78 19 -119 7z"/>
<path d="M2130 1194 c0 -13 62 -94 72 -94 4 0 8 3 8 8 -1 12 -80 98 -80 86z"/>
<path d="M2138 1039 c-21 -12 -23 -32 -5 -47 13 -11 52 9 40 21 -3 4 -12 2
-20 -4 -10 -9 -13 -8 -13 5 0 11 9 16 28 16 21 0 24 2 12 10 -18 12 -21 12
-42 -1z"/>
<path d="M2041 975 c4 -3 21 -7 38 -10 57 -7 83 -51 44 -74 -17 -10 -17 -10
-1 -11 10 0 22 10 29 21 18 35 -17 73 -72 77 -24 2 -41 1 -38 -3z"/>
<path d="M2179 961 c8 -5 10 -14 6 -21 -11 -17 15 -31 37 -19 10 5 18 17 18
27 -1 16 -2 16 -14 0 -7 -10 -19 -18 -27 -18 -10 0 -10 3 -1 12 18 18 14 28
-10 28 -17 0 -19 -3 -9 -9z"/>
<path d="M2290 967 c0 -16 31 -82 43 -89 25 -16 30 -7 9 15 -12 13 -22 28 -22
33 0 12 -29 52 -30 41z"/>
<path d="M2020 951 c0 -5 6 -14 14 -20 8 -7 17 -23 20 -36 4 -14 13 -25 21
-25 11 0 12 4 2 23 -32 58 -57 84 -57 58z"/>
<path d="M1027 1223 c59 -91 93 -170 119 -272 13 -51 24 -102 24 -112 0 -11 5
-19 10 -19 6 0 10 3 10 8 -1 30 -43 190 -64 240 -27 68 -114 212 -128 212 -5
0 8 -26 29 -57z"/>
</g>
</svg>
