<svg id="visual" viewBox="0 0 960 540" width="960" height="540" xmlns="http://www.w3.org/2000/svg" xmlns:xlink="http://www.w3.org/1999/xlink" version="1.1"><rect x="0" y="0" width="960" height="540" fill="#faebd7"></rect><path d="M0 389L22.8 389.2C45.7 389.3 91.3 389.7 137 398C182.7 406.3 228.3 422.7 274 421.7C319.7 420.7 365.3 402.3 411.2 395.7C457 389 503 394 548.8 400.8C594.7 407.7 640.3 416.3 686 422C731.7 427.7 777.3 430.3 823 433.2C868.7 436 914.3 439 937.2 440.5L960 442L960 541L937.2 541C914.3 541 868.7 541 823 541C777.3 541 731.7 541 686 541C640.3 541 594.7 541 548.8 541C503 541 457 541 411.2 541C365.3 541 319.7 541 274 541C228.3 541 182.7 541 137 541C91.3 541 45.7 541 22.8 541L0 541Z" fill="#e0aff8"></path><path d="M0 464L22.8 460.7C45.7 457.3 91.3 450.7 137 447.8C182.7 445 228.3 446 274 447.5C319.7 449 365.3 451 411.2 451.3C457 451.7 503 450.3 548.8 447.5C594.7 444.7 640.3 440.3 686 434.3C731.7 428.3 777.3 420.7 823 421.5C868.7 422.3 914.3 431.7 937.2 436.3L960 441L960 541L937.2 541C914.3 541 868.7 541 823 541C777.3 541 731.7 541 686 541C640.3 541 594.7 541 548.8 541C503 541 457 541 411.2 541C365.3 541 319.7 541 274 541C228.3 541 182.7 541 137 541C91.3 541 45.7 541 22.8 541L0 541Z" fill="#ddc7f8"></path><path d="M0 490L22.8 486C45.7 482 91.3 474 137 473.7C182.7 473.3 228.3 480.7 274 480.2C319.7 479.7 365.3 471.3 411.2 473.2C457 475 503 487 548.8 489.2C594.7 491.3 640.3 483.7 686 480.5C731.7 477.3 777.3 478.7 823 481.8C868.7 485 914.3 490 937.2 492.5L960 495L960 541L937.2 541C914.3 541 868.7 541 823 541C777.3 541 731.7 541 686 541C640.3 541 594.7 541 548.8 541C503 541 457 541 411.2 541C365.3 541 319.7 541 274 541C228.3 541 182.7 541 137 541C91.3 541 45.7 541 22.8 541L0 541Z" fill="#e2dcf2"></path></svg>