<?xml version="1.0" standalone="no"?>
<!DOCTYPE svg PUBLIC "-//W3C//DTD SVG 20010904//EN"
 "http://www.w3.org/TR/2001/REC-SVG-20010904/DTD/svg10.dtd">
<svg version="1.0" xmlns="http://www.w3.org/2000/svg"
 width="1300.000000pt" height="1133.000000pt" viewBox="0 0 1300.000000 1133.000000"
 preserveAspectRatio="xMidYMid meet">
<metadata>
Created by potrace 1.16, written by Peter Selinger 2001-2019
</metadata>
<g transform="translate(0.000000,1133.000000) scale(0.100000,-0.100000)"
fill="#000000" stroke="none">
<path d="M6774 10875 c-280 -49 -622 -202 -785 -353 -140 -129 -195 -261 -170
-407 13 -80 55 -175 108 -249 34 -48 36 -52 24 -91 -139 -484 -170 -813 -101
-1087 29 -114 77 -210 150 -298 172 -210 179 -348 34 -671 -121 -271 -181
-432 -190 -512 -11 -97 8 -111 212 -152 137 -28 164 -42 201 -103 30 -49 29
-110 -2 -200 -30 -85 -26 -110 22 -158 51 -51 109 -77 175 -78 32 -1 58 -2 58
-2 0 -1 -7 -18 -15 -37 -19 -46 -19 -110 -1 -145 16 -31 57 -62 106 -82 59
-23 135 -62 142 -74 12 -18 8 -116 -7 -186 -17 -75 -19 -178 -5 -214 27 -71
122 -140 230 -167 60 -15 298 -17 321 -4 7 5 27 10 43 12 102 11 645 219 823
314 50 27 100 49 111 49 70 0 122 -194 108 -405 -24 -369 -160 -723 -362 -937
-144 -153 -421 -379 -669 -546 -243 -165 -625 -351 -860 -420 -84 -24 -217
-52 -253 -52 -24 0 -23 2 18 37 60 52 124 142 140 197 25 91 -16 162 -106 185
-66 17 -112 55 -120 99 -9 49 -75 119 -125 132 -22 6 -57 8 -79 5 -39 -6 -39
-6 -52 37 -16 56 -75 114 -129 128 -99 27 -232 -31 -349 -150 -108 -110 -183
-248 -211 -390 -22 -110 -5 -166 85 -289 l39 -54 -79 -76 c-115 -111 -229
-200 -404 -316 -323 -214 -656 -353 -975 -406 -120 -20 -356 -15 -462 9 -87
20 -238 75 -248 91 -4 8 25 227 45 336 32 169 99 398 162 547 l33 78 74 0
c349 0 768 351 956 801 30 71 41 89 54 83 91 -38 141 -48 256 -48 112 -1 124
1 171 26 28 15 70 48 93 74 l41 46 47 -30 c96 -61 245 -117 415 -154 91 -20
131 -22 348 -22 196 0 262 3 330 17 102 22 194 62 237 105 66 66 80 190 33
296 -12 29 -20 65 -18 85 3 31 7 36 46 49 34 11 47 22 58 47 21 51 -4 121 -56
151 l-29 18 40 43 c49 54 78 115 79 166 0 31 -6 44 -32 68 -107 95 -111 112
-47 197 73 96 62 179 -30 230 -22 13 -90 38 -151 58 -170 54 -203 92 -240 279
-37 186 -81 281 -189 417 -187 237 -328 326 -629 402 -306 78 -700 81 -987 10
-428 -107 -745 -345 -915 -689 -88 -177 -120 -331 -120 -570 0 -289 57 -538
180 -790 72 -149 159 -273 259 -368 97 -93 151 -130 279 -193 l104 -50 -64
-34 c-205 -108 -392 -276 -514 -460 -38 -58 -78 -125 -89 -148 -11 -23 -24
-42 -30 -42 -33 0 -117 54 -165 107 -92 99 -168 273 -201 463 -15 83 -18 348
-6 395 l8 29 -23 -19 -23 -20 22 25 c11 14 30 57 42 96 12 39 43 119 71 177
28 59 65 148 82 199 28 81 32 107 32 198 l1 105 -57 140 c-104 258 -158 488
-158 678 0 105 2 114 40 210 53 131 98 204 165 265 67 61 140 91 310 127 146
30 203 57 240 113 32 49 40 92 25 136 -12 38 -51 66 -90 66 -12 0 -18 5 -15
10 3 6 14 10 23 10 21 0 130 55 154 78 83 78 123 138 139 207 9 43 9 60 -1 85
-28 68 -68 73 -277 34 -76 -14 -154 -28 -173 -30 -41 -5 -351 -59 -425 -74
-27 -5 -91 -16 -141 -25 -170 -28 -246 -59 -321 -128 -54 -50 -89 -101 -213
-307 -52 -85 -127 -207 -168 -270 -181 -278 -212 -345 -219 -465 -6 -100 1
-129 115 -465 100 -292 168 -525 209 -713 l27 -122 1 -475 c3 -774 29 -1159
116 -1675 215 -1276 745 -2118 1549 -2457 187 -79 245 -89 238 -45 -2 17 -25
29 -113 62 -280 104 -494 239 -712 449 -449 432 -754 1116 -907 2031 -79 473
-106 874 -107 1595 0 418 -3 487 -19 579 -39 214 -129 526 -265 916 -120 344
-120 346 186 828 52 81 132 211 179 288 142 234 193 272 435 314 50 9 179 31
287 50 693 122 642 115 658 84 26 -48 -53 -186 -138 -239 -71 -45 -158 -68
-320 -85 -274 -28 -371 -49 -476 -102 -61 -31 -135 -104 -176 -174 -17 -30
-51 -85 -75 -122 -23 -37 -71 -136 -105 -219 -60 -144 -62 -152 -44 -165 10
-7 23 -12 29 -10 10 4 96 168 178 344 37 79 59 112 95 144 126 111 272 160
537 180 72 6 162 13 201 16 67 5 73 4 84 -16 16 -30 -3 -83 -41 -115 -33 -28
-49 -33 -220 -71 -274 -61 -393 -174 -495 -470 -20 -58 -25 -90 -25 -185 0
-211 49 -414 176 -735 46 -116 47 -122 42 -200 -5 -90 -38 -196 -99 -325 -85
-179 -110 -265 -124 -423 -6 -67 -4 -80 12 -100 16 -18 16 -19 2 -8 -17 12
-18 10 -18 -30 1 -78 28 -252 54 -342 49 -167 123 -297 213 -377 51 -44 112
-80 138 -80 8 0 15 -3 15 -6 0 -3 -20 -56 -44 -117 -78 -198 -137 -432 -175
-693 -30 -201 -30 -196 27 -226 355 -191 883 -142 1417 132 291 150 527 313
740 512 l76 71 37 -35 c105 -99 185 -150 211 -133 18 11 12 52 -12 82 -13 15
-40 53 -60 83 -43 66 -84 93 -134 88 -31 -2 -40 2 -74 42 -50 57 -89 135 -89
175 0 58 39 185 82 268 53 104 174 230 262 272 133 64 235 18 242 -108 1 -29
3 -55 3 -59 2 -13 23 -9 68 13 81 39 163 -2 178 -88 5 -35 15 -48 58 -82 29
-22 69 -43 91 -47 47 -8 86 -43 86 -77 0 -82 -133 -232 -232 -262 -31 -9 -44
-18 -46 -34 -8 -51 139 -66 303 -32 363 77 829 312 1245 626 323 244 512 435
615 620 222 396 286 1007 125 1177 -52 54 -85 52 -214 -13 -178 -91 -375 -172
-608 -250 -192 -65 -260 -79 -393 -79 -285 1 -381 90 -330 311 9 41 17 104 18
141 1 93 -13 111 -142 173 -111 55 -131 73 -131 117 0 69 55 125 169 173 127
52 147 69 116 95 -12 10 -37 3 -132 -33 -198 -76 -261 -80 -344 -24 -55 37
-61 59 -32 130 50 125 30 224 -62 305 -40 35 -56 42 -133 56 -48 9 -116 24
-152 34 l-65 18 2 40 c2 61 57 214 153 429 104 233 129 309 135 415 2 41 0 98
-6 125 -13 72 -70 180 -134 255 -110 128 -162 278 -173 495 -12 231 23 488
104 753 l25 82 94 -84 c228 -203 528 -394 926 -591 481 -237 852 -349 1734
-520 538 -104 731 -154 914 -234 132 -59 216 -114 302 -200 227 -228 275 -478
154 -793 -42 -109 -139 -301 -242 -478 -273 -469 -350 -633 -384 -815 -43
-228 76 -407 320 -485 177 -56 327 -70 856 -76 488 -6 602 -15 698 -58 72 -32
100 -73 93 -133 -10 -75 -73 -182 -184 -310 -55 -65 -63 -96 -26 -101 40 -6
211 220 253 334 67 176 -37 282 -307 314 -48 6 -244 13 -437 15 -524 8 -629
12 -756 34 -464 80 -564 306 -339 766 71 144 111 218 263 482 244 423 305 578
314 788 5 103 2 132 -16 198 -53 193 -177 360 -351 473 -211 136 -469 217
-1035 324 -671 127 -1037 219 -1385 349 -365 137 -835 388 -1125 600 -143 106
-305 255 -305 283 0 27 85 241 141 352 119 240 342 463 603 602 93 49 99 55
90 77 -9 23 -23 25 -100 12z m-135 -99 c-2 -2 -42 -32 -89 -66 -47 -35 -128
-106 -181 -159 -144 -147 -231 -287 -330 -536 -26 -66 -51 -119 -56 -119 -4 1
-27 37 -50 80 -46 86 -67 178 -57 246 30 200 249 379 629 514 112 40 144 50
134 40z m-1604 -3571 c208 -26 424 -94 562 -177 56 -33 217 -198 282 -287 64
-88 110 -200 137 -332 14 -68 34 -142 43 -164 40 -91 114 -143 266 -185 113
-31 165 -67 165 -112 0 -8 -20 -45 -45 -82 -49 -75 -57 -123 -31 -175 16 -30
80 -91 96 -91 18 0 10 -54 -13 -92 -12 -20 -48 -64 -79 -97 -32 -34 -58 -68
-58 -76 0 -18 31 -35 66 -35 36 0 64 -26 64 -60 0 -23 -7 -30 -45 -45 -53 -20
-65 -38 -65 -99 0 -39 8 -70 45 -161 21 -54 -13 -158 -63 -194 -17 -12 -55
-30 -85 -40 -106 -37 -194 -46 -427 -45 -190 1 -240 4 -323 23 -204 44 -383
119 -450 187 -43 45 -63 41 -82 -16 -31 -92 -138 -146 -269 -138 -84 6 -226
45 -226 64 0 7 11 59 25 116 32 135 45 247 45 386 0 109 -1 115 -29 156 -126
183 -286 180 -390 -7 -49 -89 -66 -246 -37 -355 29 -108 119 -220 233 -293 59
-37 64 -43 58 -67 -12 -51 -104 -229 -166 -322 -77 -116 -236 -281 -332 -348
-145 -100 -306 -162 -419 -162 l-49 0 37 68 c114 212 311 406 539 532 92 51
105 61 111 86 9 36 -10 52 -121 104 -126 60 -201 111 -290 199 -197 194 -328
468 -395 826 -6 33 -14 130 -17 216 -9 246 18 408 98 578 202 432 633 693
1204 730 140 10 275 5 430 -14z m-646 -1710 c16 -8 49 -37 75 -66 l46 -51 0
-112 c0 -61 -7 -155 -15 -208 -15 -99 -49 -245 -59 -255 -9 -10 -107 60 -159
113 -26 27 -62 78 -80 114 -30 61 -32 70 -31 175 0 91 4 118 22 159 30 66 59
105 96 127 37 23 67 24 105 4z"/>
</g>
</svg>
