<?xml version="1.0" encoding="utf-8"?>
<!-- Generator: Adobe Illustrator 25.2.0, SVG Export Plug-In . SVG Version: 6.00 Build 0)  -->
<svg version="1.1" id="Layer_1" xmlns="http://www.w3.org/2000/svg" xmlns:xlink="http://www.w3.org/1999/xlink" x="0px" y="0px"
	 viewBox="0 0 163.9 327.7" style="enable-background:new 0 0 163.9 327.7;" xml:space="preserve">
<style type="text/css">
	.st0{fill:#000;}
</style>
<path class="st0" d="M35.6,98.7c-3.4,1.1-6.7,2.5-10.1,3.8c-6.4,2.4-10.5,7.1-12.8,13.4c-2.2,6.1-3.2,12.4-4,18.8
	c-0.7,6-1.2,12.1-1.6,18.1c-0.6,9-0.9,18-1.3,26.9c-0.3,6.4-0.4,12.9-0.5,19.3C5,206.6,4.8,214,4.6,221.5c-0.1,0.6,0,1.2,0.4,1.7
	c0.9,1,1.7,2,2.6,3c6.7,7.7,13.8,15.1,21.1,22.2c7.1,6.9,14.5,13.4,22.2,19.6c9.9,7.8,20.3,14.9,31.3,21.1c5.5,3.3,11.9,5,18.4,4.7
	c2.7-0.1,5.4-0.2,8.1-0.5c2.8-0.3,5.6-0.5,8.2-1.9c6.9-3.5,13-8.2,18.1-14c0.5-0.6,1-1.1,1.5-1.7c0.2,0.6-0.2,0.8-0.4,1
	c-5.1,6.3-11.3,11.6-18.5,15.4c-1.4,0.9-2.9,1.5-4.5,1.8c-3.8,0.5-7.5,1-11.3,1.2c-6.4,0.4-12.6-0.3-18.5-3.3
	c-17.3-9.2-33.5-20.4-48.1-33.5c-0.9-0.8-1.1-0.8-1.5,0.4c-1.3,4.4-2.7,8.7-3.9,13.1c-3,11.1-5.1,22.3-5,33.8c0,6.8,1,13.7,3.2,20.1
	c0.1,0.2,0.3,0.4,0,0.6c-0.3-0.4-0.5-0.8-0.6-1.3c-2.7-6.9-4.1-14.2-4.2-21.5c-0.2-10.3,1-20.6,3.5-30.6c1.3-5.5,2.9-10.8,4.5-16.2
	c0.5-1,0.1-2.2-0.8-2.9c-1.4-1.2-2.7-2.6-4.1-3.8c-8.6-8-16.7-16.6-24.2-25.6c-0.5-0.6-0.8-1.3-0.7-2.1c0.2-7,0.4-13.9,0.7-20.9
	c0.2-5.3,0.3-10.5,0.5-15.8c0.3-6,0.6-12,0.9-18c0.2-4.5,0.4-8.9,0.8-13.4c0.5-6.3,1-12.7,1.9-19c0.7-6.4,2.1-12.7,4.1-18.8
	c1.9-5.5,4.8-10.3,9.9-13.5c3.1-1.9,6.5-3,9.9-4.2c6-2.2,12.1-4.3,17.5-7.7c6.4-4,10.7-9.4,12.2-16.9c0.5-2.4,1.2-4.9,0.6-7.5
	c-0.5-2.8-0.8-5.7-0.9-8.6c0-0.2-0.1-0.6,0.2-0.7c0.2,0.2,0.4,0.5,0.3,0.8c0.1,1.9,0.5,3.8,1,5.7c3.2,13.3,11.1,22.6,23.6,28
	c0.9,0.4,1.9,0.4,2.7-0.2c3-1.8,5.9-3.7,8.6-5.9c6.4-5,11.6-11.3,15.4-18.5c0.5-0.9,0.9-1.8,1.5-2.8c0.1,0.4,0.1,0.8-0.1,1.1
	c-1.5,4.5-3.7,8.7-6.4,12.5c-0.3,0.4-0.5,0.8-0.7,1.2c-1.2,4.4-2.5,8.8-3.7,13.3c-2.4,8.9-5.3,17.7-6,27c-0.4,5.6,0.3,11,3.1,16
	c0.6,1.3,1.4,2.4,2.5,3.3c0.3-0.5,0-0.9-0.1-1.3c-1.1-4.1-1.6-8.3-1.5-12.5c0-5.6,0.9-11.2,2.7-16.5c3-9.4,6.8-18.5,9.4-27.9
	c2.2-7.9,4.1-15.9,3.9-24.2c-0.1-6-1.7-11.8-4.7-17c-3.7-6.3-8.9-11.2-14.8-15.4c-0.7-0.5-1.4-1-2.2-1.5c0.9,0.2,1.8,0.6,2.5,1.1
	c5.8,3.6,11,7.8,15,13.5c6.1,8.6,7.5,18.3,6.4,28.5c-1.1,8.4-3.1,16.8-6,24.8c-2.3,6.8-4.8,13.6-7,20.4c-2.4,7.3-3,14.9-2,22.5
	c1.2,9.1,5.2,17.5,11.5,24.2c4,4.5,9.3,7.9,15.1,9.5c0.6,0.2,1.3,0.1,1.8,0.5c-3-0.2-5.9-1-8.6-2.4c-6.2-3.2-11.5-7.9-15.3-13.7
	c-0.4-0.6-0.8-1-1.7-0.8c-5.2,1.4-10.7,1.4-16,0.1c-7.8-1.9-13.8-6.6-18.8-12.6c-4.2-5.3-7.9-11-11.1-17
	c-4.6-8.3-8.9-16.7-14.5-24.4c-0.1-0.1-0.2-0.3,0-0.4c0.4,0.1,0.6,0.5,0.8,0.8c4.2,5.2,8,10.7,11.3,16.5c4.5,7.3,8.6,14.8,13.9,21.6
	c3.2,4.4,7.3,8.1,12,10.9c6.6,3.8,13.8,4.6,21.2,3.6c1.5-0.2,1.5-0.3,0.8-1.7c-1.2-2.2-2.2-4.5-3.1-6.9c-0.1-0.4-0.4-0.8-0.7-1.1
	c-4.3-3.8-7-9.1-7.6-14.8c-0.2-1.4,0-2.8-0.7-4.1c-2.2-4.6-3-9.8-2.3-14.8c0.8-5.5,2.3-10.9,4.6-16c0.1-0.3,0.6-0.6,0.1-0.9
	c-0.3-0.2-0.6,0.2-0.8,0.4c-2.4,1.9-5.1,3.7-7.8,5.2c-0.6,0.4-1.4,0.4-2.1,0.2c-1.7-0.6-3.4-1.3-5-2.1c-2.8-1.5-5.4-3.2-7.8-5.2
	c1,2.7,1.9,5.3,3,7.8c2,4.8,3,10.1,6.1,14.5c-0.5,0-0.7-0.4-0.9-0.6c-1-1.1-1.9-2.3-2.5-3.7c-2.7-5.7-4.9-11.7-6.4-17.8
	c-0.2-0.8-0.6-1.5-1.2-2.1c-3.4-3.4-6.1-7.4-7.9-11.9c-0.6-1.5-1.1-3.1-1.8-4.8c-0.1,1.2-0.2,2.2-0.3,3.2c-0.7,5.6-3.1,10.8-7,14.9
	c-3.4,3.3-7.3,6-11.6,7.9C39.8,96.8,37.8,97.7,35.6,98.7L35.6,98.7z M104.4,81.5c-0.1-0.2-0.2,0-0.3,0.1c-0.1,0.1-0.2,0.2-0.2,0.3
	c-1.6,2.1-3.5,4-5.4,5.7c-0.5,0.4-0.9,1-1.1,1.7c-1.5,6.1-3.3,12.2-4,18.5c-0.5,3.9-0.3,7.8,0.5,11.7
	C94.7,106.1,99.9,93.9,104.4,81.5z"/>
<path class="st0" d="M131.2,191c0.9-1.3,1.4-2.8,1.5-4.4c0.3-1.9-0.7-3.8-2.5-4.6c-0.6-0.3-0.6-0.7-0.5-1.3c0.3-1,0.4-2.1,0.4-3.2
	c0.1-1.2-0.7-2.3-1.9-2.4c-0.1,0-0.2,0-0.3,0c-0.9,0.1-1.6-0.6-1.7-1.4c-0.2-1-0.6-1.9-1.1-2.7c1.5,0.7,2.8,1.3,4.2,1.9
	c3.7,1.4,7.5,2.4,11.3,3c4,0.5,7.8,2,11.2,4.3c-0.9-1.3-2-2.4-3.3-3.1c-2.9-1.8-6.2-3-9.6-3.6c-6.7-1.3-13.2-3.6-19.3-6.7
	c-0.4-0.2-0.7-0.4-1-0.6c-0.3-0.2-0.6-0.4-1-0.5c0.8,1.1,1.3,2.3,1.7,3.6c0.5,1.3,1.6,2.2,2.9,2.5c1,0.1,1.8,0.9,1.8,1.9
	c0.2,1.8,0.8,3.5,2.9,3.9c0.6,0.1,0.5,0.7,0.4,1.2c-0.2,0.9-0.4,1.7-0.5,2.6c-0.2,1.4,0.5,2.7,1.7,3.2c0.7,0.3,1.3,0.7,1.2,1.6
	c-0.1,0.9,0,2-1.1,2.5c-5.6,2.7-11.2,5.4-17.3,6.5c-2,0.4-4,0.3-5.9-0.3c0.4,0.6,1,1,1.7,1.1c3,1,6.1,0.6,9.1,0.1
	c4.4-0.9,8.7-2.3,12.7-4.2c0.8-0.4,1.7-0.4,2.4,0.1c9.8,5.7,16.8,15.2,19.5,26.3c3,11.3,2.4,23.2-1.7,34.1
	c-2.4,6.9-6.7,13-12.5,17.6c-0.2,0.2-0.6,0.3-0.6,0.8c4.1-1.9,7.8-4.6,10.8-7.9c-0.1,14,0.1,27.6,0.5,41.3c0.8-2.4,1.3-4.9,1.7-7.4
	c0.9-5.7,1.2-11.5,0.9-17.3c-0.2-5.3-0.9-10.5-2-15.7c-0.3-1.1,0-2.3,0.7-3.2c4.9-6.4,8-14,9-22c1.3-8.6,0.2-17.4-3.2-25.4
	c-0.7-1.8-1.6-3.6-2.7-5.2c-0.4-0.7-0.3-1.1,0.5-1.1c3-0.2,5-2,6.6-4.3c3.2-4.6,4.1-9.7,3.6-15.2c-0.8-9-4-17.2-7.3-25.5
	c-3.1-7.8-6.6-15.4-9.5-23.3c-1.7-4.7-3.2-9.5-4.9-14.3c-2.2-6.1-4.6-12.2-8.2-17.7c-2.3-3.7-5.5-6.6-9.4-8.5
	c-0.6-0.1-0.9-0.7-0.8-1.3c0-0.1,0-0.1,0.1-0.2c1.5-6,2.7-12,3.5-18.1c0.8-6.2,1.2-12.5,1-18.8c0.1-0.9,0.3-1.7,0.5-2.5
	c2.1-10.7,1.5-21.2-2.9-31.3C122,19.4,118,14,112,10.2c-4.6-3-10.2-4.2-15.6-3.4c-1.2,0.1-2.3,0.3-3.4,0.7c0.7,0.2,1.5,0.1,2.2-0.1
	c8.9-0.8,15.8,2.8,21.4,9.3c5.7,6.7,8.6,14.7,10.1,23.2c0.7,4.9,1,9.8,0.7,14.7c0,0.8-0.2,1.6-0.5,2.3c-0.1-1.1-0.2-2.1-0.3-3.2
	c-1-9.7-3.2-19.1-8.9-27.3c-5-7.3-12.8-12.2-21.5-13.6c-0.3-0.1-0.6,0-0.8,0.2c1,0.3,2,0.6,2.9,1c8.2,2.8,14.8,8.9,18.4,16.7
	c2.5,5.4,4.1,11.2,4.7,17.1c0.7,6.8,0.8,13.6,0.2,20.4c-0.9,9.8-2.6,19.6-5.2,29.1c-1.8,7.1-4.6,13.8-6.2,20.9
	c-1,3.9-1.3,7.9-0.9,11.9c0.5,5,3.6,9.4,8.2,11.5c2,1,4.2,1.9,6.2,2.8c2.9,1.1,4.7,4,4.4,7c-0.1,2,0.2,4.1,0.7,6.1
	c0.7,3.4,3.5,6,6.9,6.4c2.5,0.5,5.1,0.3,7.5,1.3c-1-0.8-2.2-1.3-3.4-1.5c-1-0.3-2.1-0.5-3.1-0.7c-4.1-1.1-5.9-3.4-6-7.7
	c-0.1-2.1,0.3-4.2,0.1-6.3c-0.3-2.8-1.8-5.3-4.2-6.8c-1.7-1.1-3.4-2-5.2-2.9c-2.3-1.2-4.6-2.5-6-5c-1.3-2.6-1.7-5.4-1.3-8.3
	c0.6-5.9,2.6-11.3,4.6-16.8c1.2-3.3,2.2-6.8,3.2-10.2c0.3-1,0.6-1,1.4-0.5c3.2,2,5.8,4.8,7.8,8c2.7,4.9,5,10,6.6,15.4
	c2.1,6.2,3.7,12.6,5.9,18.8c3.1,8.7,7,17.2,10.5,25.7c2.5,6,4.8,12.1,6,18.6c0.9,4.7,1,9.4-0.8,13.9c-0.7,1.8-1.8,3.5-3.1,5
	c-1.2,1.2-2.8,1.9-4.5,2.1c-0.8,0.1-1.1-0.4-1.5-0.9c-3.9-5.5-9.2-9.9-15.3-12.7C133.7,191.9,132.5,191.5,131.2,191z"/>
<path class="st0" d="M40.8,158.4c4-3.3,7.2-7.4,9.4-12.1c0.5-0.9,0.4-2-0.2-2.8c-2.7-3.7-5.3-7.4-8.2-10.9c-0.2-0.3-0.5-0.5-0.9-1
	c-0.1,1-0.3,1.8-0.4,2.6c-0.6,5.7-1.1,11.3-1.6,17c-0.3,2.8-0.5,5.6-0.7,8.5c0,0.4-0.1,0.7,0.4,0.9c-0.3,0.4-0.5,0.8-0.5,1.3
	c-0.2,2.7-0.5,5.4-0.6,8.1c-0.1,2.2-0.6,4.5-0.2,6.7c0.5,3.3,1.2,6.6,1.7,9.9c0.9,6,1.6,12.1,1.8,18.2c0.2,4.3,0.1,8.6,0,12.9
	c0,1,0.3,1.9,0.8,2.7c9,12.4,19,24,29.9,34.8c0.5,0.6,1.1,1,1.8,1.3C65,244,63.6,231,68.6,217.3c0.1,0.4,0.1,0.8,0,1.2
	c-1,5-1.2,10.1-0.8,15.2c0.5,7,2.3,13.9,5.5,20.2c1.3,2.6,2.5,5.3,4.7,7.4c3.3,3.1,6.6,6,10,8.9c0.5,0.5,1.4,0.7,2.1,0.4
	c8.4-3,17.4-3.7,26.1-2.2c0.9,0.2,1.9,0.1,2.8-0.3c2.5-1.1,5.2-1.5,8-1.3c1.8,0.1,3.5,0.7,5,1.7c-1.1-0.2-2.1-0.7-3.2-0.9
	c-3.3-0.4-6.6,0.2-9.5,1.8c-0.7,0.4-1.6,0.6-2.4,0.6c-3-0.4-6-0.5-9-0.3c-5.5,0.3-10.9,1.1-15.8,3.4c-2.8,1.3-4.6,0.8-6.9-1
	c-10-7.9-19.4-16.6-28.1-25.9c-9.6-10.2-18.1-21.2-25.6-33.1c-0.4-0.6-0.7-1.3-0.6-2c0.5-7.9,1.1-15.7,1.9-23.5
	c0.9-9.7,2-19.4,3.4-29c1.2-8.9,2.6-17.9,4.4-26.7c0.2-0.7,0-1.4-0.4-1.9c-1.5-1.7-2.9-3.4-4.3-5.1c-0.7-0.8-1.4-1.6-2-2.4
	c0.2-0.1,0.4-0.1,0.6,0.1c4.4,3.6,8.5,7.5,12.3,11.7c1.6,1.9,3.2,3.8,4.8,5.6c0.2,0.2,0.3,0.5,0.6,0.4c0.3-0.1,0.3-0.4,0.3-0.7
	c0.1-0.8,0.2-1.5,0.3-2.3c0.2-5.6-0.8-11.2-3-16.4c-2.9-6.9-6.8-13.4-11.4-19.3c-0.9-1-1.7-2.1-2.4-3.3l0.1-0.1c2,2.1,4,4.1,5.8,6.4
	c3.9,4.6,7.2,9.8,9.7,15.4c3,6.9,4.4,14,2.5,21.5c-0.3,0.9-0.1,1.9,0.5,2.5c0.3,0.3,0.4,0.7,0.7,1c0.5,0.5,0.5,1.3,0.1,1.9
	c-1,1.9-1.7,4-2.1,6.1c-1.2,5.9-0.2,11.1,4.8,15c2.6,1.9,5.5,3.3,8.5,4.2c0.4,0,0.9,0.3,1.1,0.7c-3.5-0.4-6.9-1.4-10.1-3.1
	c-5.7-3.1-8.8-9.5-7.6-15.9c0.2-1.4,0.5-2.8,0.7-4.3c-1.9,2.5-4,4.7-6.3,6.7c-1.7,1.5-3.5,2.9-5.6,3.9
	C39.2,159.7,39.9,159,40.8,158.4z M36,195.4c-0.2,4.6-0.4,9.2-0.7,13.9c-0.1,1.2,0.2,2.3,0.9,3.2c0.6,0.8,1.2,1.8,2,2.6
	c0.8-11.8,0.4-23.7-1.2-35.4C36.5,185,36.2,190.2,36,195.4L36,195.4z"/>
<path class="st0" d="M93.8,20.1c-1.2,2.4-2.9,4.6-4.9,6.5c-3.5,3-7.7,4.5-12,5.7c-4.8,1.4-9.6,2.5-14.2,4.2
	c-10.8,4-17.8,11.6-21.1,22.6c0,0.1-0.1,0.2-0.1,0.3c-0.5-1.6,0.2-5.7,1-8.4c2-6.3,5.4-12.1,10-16.9c9-9.6,20.3-15.1,33-17.8
	c2.7-0.6,5.5-1,8.2-1.3C92,14,81.2,14.5,74.8,16c-6.2,1.4-12.1,4-17.4,7.6c-5.2,3.6-9.7,8.3-13.2,13.6c0-0.8,0.2-1.6,0.6-2.3
	c2.5-6.6,7.2-11.5,13-15.3c7.5-4.9,16-8,24.9-9c3.2-0.4,6.5-0.6,9.7-0.5c0.4,0,0.7,0,1-0.2C79.9,8,67.3,10.4,55.9,18.2
	c0.7-1.4,1.6-2.7,2.7-3.8C63.8,8.5,70.2,4.3,78,2.6c3.8-1,7.8-0.6,11.4,1c0.1,0.1,0.2,0.1,0.3,0.1c0.1,0,0.3,0,0.4-0.1
	c-0.9-0.7-1.9-1.3-2.9-1.6c-4.9-1.7-9.7-1.1-14.4,0.7C64.9,5.6,58.4,11.4,54.6,19c-0.6,0.9-1.3,1.7-2.1,2.3
	C47.4,26.1,44,31.8,43.3,39c-0.1,0.5-0.3,1-0.6,1.4c-2.4,4.7-3.7,9.8-3.7,15.1c0,2.4,0.4,4.8,1.2,7c0.3,0.9,0.5,1.9,0.4,2.9
	c-0.1,8.7,4,15.3,10.5,20.6c0.1,0.1,0.2,0.1,0.3,0.2c0,0,0.1,0,0.2-0.1c-0.9-1-1.8-1.9-2.6-2.9c-3.7-4.5-6.2-9.5-6.1-15.4
	c0.2-11,5.5-19.1,14.3-25.2c4.4-3.1,9.6-4.7,14.7-6.3c4.9-1.6,9.8-3,14.1-5.9c3.5-2.3,6.2-5.6,7.7-9.5
	C93.9,20.6,93.9,20.3,93.8,20.1z"/>
<path class="st0" d="M57,80.7c0.2-0.4,0-0.6-0.1-0.7c-2.5-3.6-3.5-8.1-2.8-12.4c0.9-7.1,4.2-13.2,7.9-19.1c1.7-2.7,3.6-5.3,5.6-7.8
	c0.1-0.2,0.4-0.3,0.3-0.7c-0.8,0.6-1.6,1.2-2.2,1.9c-5.1,5.2-9.3,10.9-11.8,17.8c-1.7,4.8-2.4,9.7-0.8,14.7
	C53.9,76.8,55.2,79,57,80.7z"/>
<path class="st0" d="M91.8,184.9c1.1-1.5,2.2-3,3.2-4.5c3.2-4.5,7.7-7,13.1-8.3c2.3-0.5,4.7-1.1,6.9-1.9c-1.8-0.2-3.7-0.2-5.5,0.1
	c-1.8,0.1-3.6,0.5-5.4,0.9c-4.4,1.1-8.1,4.1-10.1,8.2C93,181.1,92.3,183,91.8,184.9z"/>
<path class="st0" d="M117.4,175.8c-9.3,2.2-17.4,6.3-23.2,14.2C101.5,184.5,109.6,180.4,117.4,175.8z"/>
<path class="st0" d="M130.4,273.2c-2,0.9-4,1.9-6,2.7c-3.7,1.6-7.6,1.9-11.6,2.4c-2.5,0.3-5,0.8-7.4,1.5c0.5,0.1,1.1,0.2,1.6,0.2
	c4.3,0.3,8.6,0.1,12.9-0.6c3.9-0.9,7.4-2.9,10.3-5.7c0.1-0.1,0.2-0.3,0.3-0.5L130.4,273.2z"/>
<path class="st0" d="M82.5,172.9c7.4,0.1,13-8.2,11.8-17.4C92.2,162.7,90.1,169.6,82.5,172.9z"/>
<path class="st0" d="M101.5,192.2c10.5-2.7,17.1-6.7,19.3-9C114,185.5,107.3,187.9,101.5,192.2z"/>
</svg>
